<svg xmlns="http://www.w3.org/2000/svg" version="1.1" xmlns:xlink="http://www.w3.org/1999/xlink" xmlns:svgjs="http://svgjs.dev/svgjs" width="1440" height="560" preserveAspectRatio="none" viewBox="0 0 1440 560"><g mask="url(&quot;#SvgjsMask1001&quot;)" fill="none"><path d="M1013.09 4.83a34.02 34.02 0 1 0-5.85 67.79z" stroke="#d3b714"></path><path d="M314.47 29.21L364.69 29.21L364.69 47.92L314.47 47.92z" fill="#d3b714"></path><path d="M1020.77 462.85L1064.69 462.85L1064.69 501.49L1020.77 501.49z" stroke="#037b0b"></path><path d="M555.46-3.33a14.44 14.44 0 1 0 22.21 18.46z" stroke="#037b0b"></path><path d="M1199.75 487.22L1230.02 487.22L1230.02 517.49L1199.75 517.49z" stroke="#d3b714"></path><path d="M150.61 397.12a48.58 48.58 0 1 0 41.66-87.78z" fill="#e73635"></path><path d="M772.34 379.97L778.01 379.97L778.01 386.54L772.34 386.54z" stroke="#d3b714"></path><path d="M1192.34 195.88L1209.83 195.88L1209.83 213.37L1192.34 213.37z" stroke="#037b0b"></path><path d="M1164.3 260.57L1170.15 260.57L1170.15 266.73L1164.3 266.73z" fill="#037b0b"></path><path d="M532.87 49.83L533.37 49.83L533.37 50.33L532.87 50.33z" stroke="#e73635"></path><path d="M1399.78 497.79 a6.19 6.19 0 1 0 12.38 0 a6.19 6.19 0 1 0 -12.38 0z" stroke="#037b0b"></path><path d="M1010.49 97.95a1.1 1.1 0 1 0 2.16-0.38z" stroke="#037b0b"></path><path d="M1382.35 313.63L1422.29 313.63L1422.29 336.57L1382.35 336.57z" stroke="#d3b714"></path><path d="M777.79 510.07a42.06 42.06 0 1 0-1.69 84.11z" fill="#e73635"></path><path d="M1200.54 61.2L1230.41 61.2L1230.41 66.46L1200.54 66.46z" stroke="#037b0b"></path><path d="M38.99 422.31L78.11 422.31L78.11 426.52L38.99 426.52z" stroke="#037b0b"></path><path d="M639.41 213.95L646.28 213.95L646.28 220.82L639.41 220.82z" fill="#037b0b"></path><path d="M1273.73 346.51L1305.13 346.51L1305.13 359.81L1273.73 359.81z" stroke="#d3b714"></path><path d="M774.25 270.75 a43.7 43.7 0 1 0 87.4 0 a43.7 43.7 0 1 0 -87.4 0z" fill="#037b0b"></path><path d="M488.33 25.52a49.04 49.04 0 1 0 51.36 83.55z" fill="#037b0b"></path><path d="M437.22 268.45a24.84 24.84 0 1 0-34.51-35.74z" stroke="#e73635"></path><path d="M1103.74 407.56a32.15 32.15 0 1 0 53.88 35.08z" fill="#e73635"></path><path d="M42.29 141.36L89.25 141.36L89.25 188.32L42.29 188.32z" fill="#d3b714"></path><path d="M225.87 385.96 a45.58 45.58 0 1 0 91.16 0 a45.58 45.58 0 1 0 -91.16 0z" stroke="#037b0b"></path><path d="M748.58 505.76 a30.45 30.45 0 1 0 60.9 0 a30.45 30.45 0 1 0 -60.9 0z" fill="#d3b714"></path><path d="M692.17 76.39L731.8 76.39L731.8 116.02L692.17 116.02z" fill="#037b0b"></path><path d="M424.34 333.12L436.35 333.12L436.35 383.38L424.34 383.38z" fill="#037b0b"></path><path d="M785.73 521.96L836.14 521.96L836.14 536.11L785.73 536.11z" fill="#e73635"></path><path d="M838.04 188.31L841.37 188.31L841.37 191.64L838.04 191.64z" fill="#e73635"></path><path d="M1067.93 434.32a41.64 41.64 0 1 0 57.17 60.56z" stroke="#d3b714"></path><path d="M1345.69 170.2L1364.38 170.2L1364.38 188.89L1345.69 188.89z" stroke="#d3b714"></path><path d="M1232.16 362.95L1256.41 362.95L1256.41 387.2L1232.16 387.2z" stroke="#e73635"></path><path d="M1016.76 554.71L1023.1 554.71L1023.1 561.05L1016.76 561.05z" stroke="#037b0b"></path></g><defs><mask id="SvgjsMask1001"><rect width="1440" height="560" fill="#ffffff"></rect></mask></defs></svg>